<?xml version="1.0" encoding="utf-8"?>
<!-- Generator: Adobe Illustrator 25.4.1, SVG Export Plug-In . SVG Version: 6.00 Build 0)  -->
<svg version="1.1" id="Layer_1" xmlns="http://www.w3.org/2000/svg" xmlns:xlink="http://www.w3.org/1999/xlink" x="0px" y="0px"
	 viewBox="0 0 30 27" style="enable-background:new 0 0 30 27;" xml:space="preserve">
<style type="text/css">
	.st0{fill:#262628;stroke:#262628;stroke-width:0.75;stroke-miterlimit:10;}
</style>
<path class="st0" d="M29.2,13.2L29.2,13.2L18,1.2c-0.2-0.2-0.5-0.2-0.7,0s-0.2,0.5,0,0.7L27.7,13H1.1c-0.3,0-0.5,0.2-0.5,0.5
	S0.8,14,1.1,14h26.6L17.2,25.1c-0.2,0.2-0.2,0.5,0,0.7c0.1,0.1,0.2,0.1,0.3,0.1c0.1,0,0.3-0.1,0.4-0.2l11.2-11.9
	C29.3,13.7,29.4,13.4,29.2,13.2z"/>
</svg>
