<?xml version="1.0" encoding="utf-8"?>
<!-- Generator: Adobe Illustrator 26.0.3, SVG Export Plug-In . SVG Version: 6.00 Build 0)  -->
<svg version="1.1" id="Layer_1" xmlns="http://www.w3.org/2000/svg" xmlns:xlink="http://www.w3.org/1999/xlink" x="0px" y="0px"
	 viewBox="0 0 100 100" style="enable-background:new 0 0 100 100;" xml:space="preserve">
<style type="text/css">
	.st0{fill:#AAAAAA;}
</style>
<g>
	<path class="st0" d="M55.4,86.5V74c4.8-1.3,8.5-3.1,11-5.4s4.5-5.3,6-8.9s2.3-8,2.3-13.2c-6.2,0-10.8-1.8-13.7-5.3
		c-2.9-3.5-4.4-7.2-4.4-11.2c0-4.7,1.6-8.6,4.9-11.8c3.3-3.2,7.1-4.8,11.4-4.8c5.6,0,10.4,2.4,14.5,7.2c4.1,4.8,6.1,11.4,6.1,19.8
		c0,7.4-1.6,14.3-4.8,20.8c-3.2,6.5-7.6,12-13.1,16.6C70.1,82.6,63.3,85.5,55.4,86.5z M6.4,86.5V74c4.8-1.3,8.5-3.1,11-5.4
		s4.5-5.3,6-8.9s2.3-8,2.3-13.2c-6.1,0-10.7-1.8-13.7-5.3C9,37.7,7.5,34,7.5,30.1c0-4.7,1.6-8.6,4.9-11.8c3.3-3.2,7.1-4.8,11.4-4.8
		c5.7,0,10.5,2.4,14.6,7.2c4,4.8,6.1,11.4,6.1,19.8c0,7.4-1.6,14.3-4.8,20.8c-3.2,6.5-7.6,12-13.1,16.6
		C21.1,82.6,14.4,85.5,6.4,86.5z"/>
</g>
</svg>
