<?xml version="1.0" encoding="utf-8"?>
<!-- Generator: Adobe Illustrator 26.0.3, SVG Export Plug-In . SVG Version: 6.00 Build 0)  -->
<svg version="1.1" id="Layer_1" xmlns="http://www.w3.org/2000/svg" xmlns:xlink="http://www.w3.org/1999/xlink" x="0px" y="0px"
	 viewBox="0 0 100 100" style="enable-background:new 0 0 100 100;" xml:space="preserve">
<style type="text/css">
	.st0{fill:#AAAAAA;}
</style>
<g>
	<path class="st0" d="M44.5,13.6v12.5c-4.8,1.3-8.5,3.1-11,5.4c-2.5,2.3-4.5,5.3-6,8.9c-1.5,3.6-2.3,8-2.3,13.2
		c6.2,0,10.8,1.8,13.7,5.3c2.9,3.5,4.4,7.2,4.4,11.2c0,4.7-1.6,8.6-4.9,11.8c-3.3,3.2-7.1,4.8-11.4,4.8c-5.6,0-10.4-2.4-14.5-7.2
		c-4.1-4.8-6.1-11.4-6.1-19.8c0-7.4,1.6-14.3,4.8-20.8c3.2-6.5,7.6-12,13.1-16.6C29.8,17.5,36.5,14.6,44.5,13.6z M93.4,13.6v12.5
		c-4.8,1.3-8.5,3.1-11,5.4c-2.5,2.3-4.5,5.3-6,8.9c-1.5,3.6-2.3,8-2.3,13.2c6.1,0,10.7,1.8,13.7,5.3c3,3.5,4.5,7.2,4.5,11.2
		c0,4.7-1.6,8.6-4.9,11.8c-3.3,3.2-7.1,4.8-11.4,4.8c-5.7,0-10.5-2.4-14.6-7.2c-4-4.8-6.1-11.4-6.1-19.8c0-7.4,1.6-14.3,4.8-20.8
		c3.2-6.5,7.6-12,13.1-16.6C78.8,17.5,85.5,14.6,93.4,13.6z"/>
</g>
</svg>
