<?xml version="1.0" encoding="utf-8"?>
<!-- Generator: Adobe Illustrator 26.2.1, SVG Export Plug-In . SVG Version: 6.00 Build 0)  -->
<svg version="1.1" id="Layer_1" xmlns="http://www.w3.org/2000/svg" xmlns:xlink="http://www.w3.org/1999/xlink" x="0px" y="0px"
	 viewBox="0 0 900 800" style="enable-background:new 0 0 900 800;" xml:space="preserve">
<style type="text/css">
	.st0{fill:#F3F3F3;}
</style>
<g id="Grupo_de_máscara_1" transform="translate(-540 -90)">
	<g id="Grupo_51" transform="translate(-119 740.93)">
		<polygon class="st0" points="1475.2,-650.9 1412.1,-587.8 816.8,7.2 674.8,149.1 670,149.1 811.9,7.2 1412.1,-592.6 
			1470.5,-650.9 		"/>
		<polygon class="st0" points="1499.6,-650.9 1412.1,-563.5 841.1,7.2 699.1,149.1 694.2,149.1 836.2,7.2 1412.1,-568.4 
			1494.7,-650.9 		"/>
		<polygon class="st0" points="1523.8,-650.9 1427.4,-554.7 863,9.4 723.2,149.1 718.4,149.1 860.4,7.2 1422.6,-554.7 1519,-650.9 
					"/>
		<polygon class="st0" points="1548,-650.9 1451.6,-554.7 863,33.6 747.4,149.1 742.5,149.1 863,28.7 1446.7,-554.7 1543.1,-650.9 
					"/>
	</g>
</g>
</svg>
